<svg width="125" height="112" viewBox="0 0 125 112" fill="none" xmlns="http://www.w3.org/2000/svg">
<path fill-rule="evenodd" clip-rule="evenodd" d="M124.295 85.9299C124.327 84.6774 121.89 83.3736 115.04 80.9031C98.9394 75.2324 80.8812 71.757 65.2314 71.4453L58.0897 71.2509L56.9962 65.551C54.7349 54.446 49.3874 42.0001 42.0297 30.64C36.0537 21.3414 26.5086 11.8718 20.3018 9.06322C19.731 8.79443 21.8174 8.5399 24.8916 8.44251C30.4332 8.3204 32.2567 7.79451 33.4244 6.09256C34.8559 4.05038 32.689 3.46933 22.2008 2.95754C16.3913 2.66064 10.1917 1.98206 8.13853 1.36368C6.04759 0.783052 3.91931 0.316111 3.38827 0.389185C1.90838 0.495123 0.323742 2.30874 0.520269 3.56248C0.599453 4.17027 2.85447 7.02941 6.06581 10.4673C12.256 17.2617 14.0165 19.9283 17.2876 27.4283C18.5564 30.4339 19.9038 33.1406 20.2473 33.4841C22.27 35.5068 22.8413 27.9895 20.988 22.9646C20.2945 21.0628 18.9128 18.2464 17.8753 16.6802C16.8038 15.0801 16.075 13.6717 16.226 13.5207C16.3393 13.4074 17.861 14.0229 19.5744 14.9811C24.4519 17.6688 31.9 25.4188 36.6086 32.7704C41.5126 40.393 45.3156 47.9718 47.8165 55.0121C49.9402 60.9115 52.4587 71.2165 51.8923 71.7828C51.7413 71.9339 49.8846 72.5692 47.7625 73.2411C45.6781 73.8753 42.9501 74.8476 41.7722 75.4149C31.3553 80.336 26.6189 89.8049 29.5939 99.5092C30.5591 102.513 31.287 103.77 33.5065 106.291C36.8289 109.991 39.0796 111.26 42.8388 111.47C48.1168 111.764 53.1862 107.763 56.0015 101.055C57.8378 96.6239 58.7249 91.386 58.8687 83.6006L58.9877 76.6883L64.0753 76.8674C76.1198 77.3496 92.7708 80.3239 109.055 84.8948C120.469 88.0688 122.33 88.4205 123.463 87.2878C123.916 86.8347 124.33 86.1916 124.291 85.9256L124.295 85.9299ZM43.6932 106.426C39.5219 107.239 35.2871 104.061 33.6264 98.7759C30.5733 89.455 36.8725 81.1713 49.2442 78.1966L52.6563 77.3798L52.9722 79.6591C53.4843 83.1162 52.6257 92.9138 51.5446 96.5901C49.8243 102.203 47.0344 105.757 43.6974 106.422L43.6932 106.426Z" fill="white"/>
</svg>
