<svg width="29" height="20" viewBox="0 0 29 20" fill="none" xmlns="http://www.w3.org/2000/svg">
<path d="M10.3917 0L11.9074 2.57576C11.0565 3.68687 10.2588 4.92424 9.51425 6.28788C8.82289 7.65152 8.42403 9.06566 8.31766 10.5303L12.7051 11.2879V20H0.5V13.7879C0.5 10.202 1.37749 7.32323 3.13248 5.15152C4.94065 2.92929 7.3604 1.21212 10.3917 0ZM26.1866 0L27.7023 2.57576C26.8514 3.68687 26.0537 4.92424 25.3091 6.28788C24.6178 7.65152 24.2189 9.06566 24.1125 10.5303L28.5 11.2879V20H16.2949V13.7879C16.2949 10.202 17.1724 7.32323 18.9274 5.15152C20.7355 2.92929 23.1553 1.21212 26.1866 0Z" fill="#E5E5E5"/>
</svg>
