<svg width="41" height="40" viewBox="0 0 41 40" fill="none" xmlns="http://www.w3.org/2000/svg">
<path d="M27.207 16.6084C27.1279 16.3106 26.972 16.0388 26.755 15.8201C26.5379 15.6014 26.2672 15.4436 25.97 15.3624C24.879 15.0684 20.5 15.0684 20.5 15.0684C20.5 15.0684 16.122 15.0684 15.03 15.3624C14.7328 15.4438 14.4621 15.6017 14.2449 15.8203C14.0277 16.0389 13.8715 16.3106 13.792 16.6084C13.5 17.7074 13.5 20.0004 13.5 20.0004C13.5 20.0004 13.5 22.2934 13.792 23.3924C13.8713 23.6901 14.0274 23.9618 14.2447 24.1803C14.4619 24.3987 14.7327 24.5564 15.03 24.6374C16.122 24.9324 20.5 24.9324 20.5 24.9324C20.5 24.9324 24.878 24.9324 25.969 24.6374C26.2663 24.5567 26.5372 24.3991 26.7543 24.1806C26.9714 23.962 27.1272 23.6902 27.206 23.3924C27.5 22.2934 27.5 20.0004 27.5 20.0004C27.5 20.0004 27.5 17.7074 27.207 16.6084ZM19.068 22.0824V17.9184L22.728 20.0004L19.068 22.0824Z" fill="#171717"/>
<rect x="1" y="0.5" width="39" height="39" rx="19.5" stroke="#E5E5E5"/>
</svg>
