<svg width="41" height="40" viewBox="0 0 41 40" fill="none" xmlns="http://www.w3.org/2000/svg">
<path fill-rule="evenodd" clip-rule="evenodd" d="M16.58 26.9296H13.57V17.2696H16.58V26.9296V26.9296ZM15.04 16.0796C14.13 16.0796 13.5 15.4496 13.5 14.6096C13.5 13.7696 14.13 13.1396 15.11 13.1396C16.09 13.1396 16.65 13.7696 16.65 14.6096C16.65 15.4496 16.09 16.0796 15.04 16.0796V16.0796ZM27.5 26.9296H24.49V21.6096C24.49 20.3496 24.07 19.5096 22.95 19.5096C22.11 19.5096 21.62 20.0696 21.41 20.6296C21.34 20.8396 21.34 21.1196 21.34 21.3996V26.9296H18.33V20.3496C18.33 19.1596 18.26 18.1796 18.26 17.2696H20.85L20.99 18.5996H21.06C21.48 17.9696 22.39 17.0596 24 17.0596C25.96 17.0596 27.43 18.3896 27.43 21.1896V26.9296H27.5Z" fill="#171717"/>
<rect x="1" y="0.5" width="39" height="39" rx="19.5" stroke="#E5E5E5"/>
</svg>
