<svg width="41" height="40" viewBox="0 0 41 40" fill="none" xmlns="http://www.w3.org/2000/svg">
<path fill-rule="evenodd" clip-rule="evenodd" d="M26.1 17.1301V17.4801C26.1 21.2601 23.23 25.6701 17.91 25.6701C16.3 25.6701 14.76 25.1801 13.5 24.4101C13.71 24.4101 13.99 24.4801 14.2 24.4801C15.53 24.4801 16.79 23.9901 17.77 23.2201C16.51 23.2201 15.46 22.3801 15.11 21.2601C15.32 21.2601 15.46 21.3301 15.67 21.3301C15.95 21.3301 16.23 21.3301 16.44 21.2601C15.11 20.9801 14.2 19.8601 14.2 18.4601V18.3901C14.2 18.6001 14.97 18.7401 15.46 18.7401C14.69 18.2501 14.13 17.3401 14.13 16.3601C14.13 15.8001 14.27 15.3101 14.55 14.8901C15.95 16.6401 18.05 17.7601 20.5 17.9001C20.36 17.6201 20.29 17.4101 20.29 17.2001C20.29 15.5901 21.55 14.3301 23.16 14.3301C24 14.3301 24.7 14.6801 25.26 15.2401C25.89 15.1001 26.52 14.8901 27.08 14.5401C26.87 15.2401 26.38 15.8001 25.82 16.1501C26.38 16.0801 26.94 15.9401 27.5 15.7301C27.08 16.2201 26.66 16.7101 26.1 17.1301V17.1301Z" fill="#171717"/>
<rect x="1" y="0.5" width="39" height="39" rx="19.5" stroke="#E5E5E5"/>
</svg>
