<svg width="41" height="40" viewBox="0 0 41 40" fill="none" xmlns="http://www.w3.org/2000/svg">
<path fill-rule="evenodd" clip-rule="evenodd" d="M20.5 14.263C22.368 14.263 22.59 14.27 23.328 14.303C24.01 14.335 24.381 14.449 24.628 14.545C24.954 14.672 25.187 14.823 25.432 15.068C25.677 15.313 25.828 15.546 25.955 15.873C26.051 16.119 26.165 16.49 26.196 17.173C26.23 17.91 26.236 18.131 26.236 20C26.236 21.868 26.23 22.09 26.196 22.828C26.165 23.51 26.051 23.881 25.956 24.128C25.828 24.454 25.676 24.687 25.432 24.932C25.2061 25.1643 24.931 25.343 24.627 25.455C24.38 25.551 24.01 25.665 23.327 25.696C22.59 25.73 22.369 25.736 20.5 25.736C18.631 25.736 18.41 25.73 17.672 25.696C16.99 25.665 16.62 25.551 16.372 25.456C16.0682 25.3436 15.7934 25.1645 15.568 24.932C15.3357 24.7061 15.1569 24.431 15.045 24.127C14.949 23.88 14.835 23.51 14.804 22.827C14.77 22.09 14.764 21.868 14.764 20C14.764 18.131 14.77 17.91 14.804 17.172C14.835 16.49 14.949 16.12 15.044 15.872C15.172 15.546 15.324 15.313 15.568 15.068C15.813 14.823 16.046 14.672 16.373 14.545C16.619 14.449 16.99 14.335 17.673 14.304C18.41 14.27 18.631 14.264 20.5 14.264M20.5 13.001C18.6 13.001 18.361 13.009 17.615 13.043C16.87 13.078 16.36 13.197 15.916 13.37C15.4488 13.5456 15.0257 13.821 14.676 14.177C14.3203 14.5268 14.0453 14.95 13.87 15.417C13.697 15.86 13.578 16.37 13.544 17.114C13.51 17.86 13.502 18.099 13.502 20C13.502 21.9 13.51 22.139 13.544 22.885C13.578 23.63 13.697 24.139 13.87 24.584C14.048 25.044 14.288 25.434 14.677 25.824C15.066 26.212 15.456 26.452 15.917 26.63C16.361 26.803 16.87 26.922 17.615 26.956C18.361 26.99 18.599 26.998 20.5 26.998C22.4 26.998 22.639 26.99 23.385 26.956C24.13 26.922 24.639 26.803 25.084 26.63C25.5511 26.4544 25.9742 26.179 26.324 25.823C26.6796 25.4732 26.9547 25.05 27.13 24.583C27.303 24.139 27.422 23.63 27.456 22.885C27.49 22.139 27.498 21.9 27.498 20C27.498 18.1 27.49 17.861 27.456 17.115C27.422 16.37 27.303 15.861 27.13 15.416C26.9544 14.9489 26.679 14.5257 26.323 14.176C25.9731 13.8203 25.55 13.5453 25.083 13.37C24.64 13.197 24.13 13.078 23.386 13.044C22.64 13.01 22.4 13.002 20.5 13.002" fill="#171717"/>
<path fill-rule="evenodd" clip-rule="evenodd" d="M20.5002 16.4068C19.5473 16.4068 18.6334 16.7854 17.9596 17.4592C17.2858 18.133 16.9072 19.0469 16.9072 19.9998C16.9072 20.9527 17.2858 21.8666 17.9596 22.5404C18.6334 23.2143 19.5473 23.5928 20.5002 23.5928C21.4531 23.5928 22.367 23.2143 23.0409 22.5404C23.7147 21.8666 24.0932 20.9527 24.0932 19.9998C24.0932 19.0469 23.7147 18.133 23.0409 17.4592C22.367 16.7854 21.4531 16.4068 20.5002 16.4068V16.4068ZM20.5002 22.3328C19.8815 22.3328 19.2881 22.087 18.8505 21.6495C18.413 21.212 18.1672 20.6186 18.1672 19.9998C18.1672 19.3811 18.413 18.7876 18.8505 18.3501C19.2881 17.9126 19.8815 17.6668 20.5002 17.6668C21.119 17.6668 21.7124 17.9126 22.1499 18.3501C22.5874 18.7876 22.8332 19.3811 22.8332 19.9998C22.8332 20.6186 22.5874 21.212 22.1499 21.6495C21.7124 22.087 21.119 22.3328 20.5002 22.3328ZM25.0752 16.2648C25.0752 16.4876 24.9867 16.7012 24.8292 16.8588C24.6717 17.0163 24.458 17.1048 24.2352 17.1048C24.0124 17.1048 23.7988 17.0163 23.6413 16.8588C23.4837 16.7012 23.3952 16.4876 23.3952 16.2648C23.3952 16.042 23.4837 15.8284 23.6413 15.6708C23.7988 15.5133 24.0124 15.4248 24.2352 15.4248C24.458 15.4248 24.6717 15.5133 24.8292 15.6708C24.9867 15.8284 25.0752 16.042 25.0752 16.2648" fill="#171717"/>
<rect x="1" y="0.5" width="39" height="39" rx="19.5" stroke="#E5E5E5"/>
</svg>
