<svg width="17" height="16" viewBox="0 0 17 16" fill="none" xmlns="http://www.w3.org/2000/svg">
<path d="M9.65327 2.33977L10.8266 4.68643C10.9866 5.0131 11.4133 5.32643 11.7733 5.38643L13.8999 5.73977C15.2599 5.96643 15.5799 6.9531 14.5999 7.92643L12.9466 9.57977C12.6666 9.85977 12.5133 10.3998 12.5999 10.7864L13.0733 12.8331C13.4466 14.4531 12.5866 15.0798 11.1533 14.2331L9.15994 13.0531C8.79994 12.8398 8.20661 12.8398 7.83994 13.0531L5.84661 14.2331C4.41994 15.0798 3.55327 14.4464 3.92661 12.8331L4.39994 10.7864C4.48661 10.3998 4.33327 9.85977 4.05327 9.57977L2.39994 7.92643C1.42661 6.9531 1.73994 5.96643 3.09994 5.73977L5.22661 5.38643C5.57994 5.32643 6.00661 5.0131 6.16661 4.68643L7.33994 2.33977C7.97994 1.06643 9.01994 1.06643 9.65327 2.33977Z" fill="#FEC51C"/>
</svg>
