<svg width="56" height="56" viewBox="0 0 56 56" fill="none" xmlns="http://www.w3.org/2000/svg">
<path fill-rule="evenodd" clip-rule="evenodd" d="M46.6546 28H9.34558C8.66828 27.9994 8.02367 28.2912 7.57711 28.8004C7.13056 29.3097 6.9255 29.9869 7.01455 30.6583C7.84375 36.3882 11.2839 41.4093 16.3278 44.2514V46.6744C16.3278 47.9636 17.3729 49.0088 18.6621 49.0088H37.338C38.6272 49.0088 39.6723 47.9636 39.6723 46.6744V44.2514C44.7163 41.4092 48.1565 36.3881 48.9856 30.6582C49.0747 29.9868 48.8696 29.3096 48.423 28.8004C47.9765 28.2912 47.3319 27.9994 46.6546 28Z" stroke="#171717" stroke-width="2" stroke-linecap="round" stroke-linejoin="round"/>
<path d="M43.5931 28C45.5923 25.6576 46.6855 22.6761 46.6745 19.5965V18.6628C46.6745 17.3736 45.6293 16.3285 44.3401 16.3285H43.4064C36.7284 16.3296 31.1236 21.3609 30.4043 28" stroke="#171717" stroke-width="2" stroke-linecap="round" stroke-linejoin="round"/>
<path d="M30.4042 28H15.1974C13.9592 28 12.7717 27.5081 11.8962 26.6326L10.9276 25.6641C8.79432 23.5284 8.79506 20.0681 10.9292 17.9333C13.0634 15.7986 16.5237 15.7969 18.66 17.9296V17.4969H18.6627C18.6622 14.161 20.4415 11.0783 23.3302 9.40997C26.2189 7.74164 29.7782 7.74116 32.6674 9.40871C35.5566 11.0763 37.3366 14.1585 37.3371 17.4943V17.8203" stroke="#171717" stroke-width="2" stroke-linecap="round" stroke-linejoin="round"/>
</svg>
