<svg width="56" height="56" viewBox="0 0 56 56" fill="none" xmlns="http://www.w3.org/2000/svg">
<path fill-rule="evenodd" clip-rule="evenodd" d="M13.9932 49.0087H9.32454C8.03534 49.0087 6.99023 47.9636 6.99023 46.6744V32.6686C6.99023 31.3794 8.03534 30.3343 9.32454 30.3343H13.9932C15.2824 30.3343 16.3275 31.3794 16.3275 32.6686V46.6744C16.3275 47.9636 15.2824 49.0087 13.9932 49.0087Z" stroke="#171717" stroke-width="2" stroke-linecap="round" stroke-linejoin="round"/>
<path d="M31.5011 9.32556V20.0634" stroke="#171717" stroke-width="2" stroke-linecap="round" stroke-linejoin="round"/>
<path d="M46.6741 32.6686V23.4248C46.6677 21.5673 45.1608 20.0646 43.3034 20.0634H19.6989C17.8414 20.0646 16.3346 21.5673 16.3281 23.4248V35.2363" stroke="#171717" stroke-width="2" stroke-linecap="round" stroke-linejoin="round"/>
<path d="M16.3281 32.6686V18.5951C16.3286 17.6845 16.5128 16.7834 16.8697 15.9456L18.7161 11.6272C19.3127 10.2307 20.685 9.32501 22.2036 9.32552H40.7963C42.3196 9.32062 43.6982 10.2268 44.2978 11.6272L46.1442 15.9503C46.4976 16.7887 46.6779 17.6899 46.6742 18.5997V33.8007" stroke="#171717" stroke-width="2" stroke-linecap="round" stroke-linejoin="round"/>
<path d="M30.334 39.6716H35.7799C36.79 39.6716 37.7729 39.3439 38.5811 38.7378L44.2207 34.5081C45.6287 33.4526 47.5985 33.5929 48.8427 34.8372V34.8372C49.5061 35.5001 49.8788 36.3994 49.8788 37.3372C49.8788 38.2751 49.5061 39.1744 48.8427 39.8373L44.0037 44.6763C42.7002 45.9799 41.04 46.8685 39.2323 47.23L32.3928 48.5979C31.0368 48.869 29.6376 48.8355 28.2961 48.4999L22.1102 46.9546C21.3707 46.7682 20.6109 46.6741 19.8483 46.6745H16.3281" stroke="#171717" stroke-width="2" stroke-linecap="round" stroke-linejoin="round"/>
<path d="M30.334 39.6715H33.8004C35.7535 39.6715 37.3369 38.0882 37.3369 36.135V35.4347C37.3369 33.8127 36.2331 32.3988 34.6594 32.0057L29.3092 30.6681C28.4399 30.4487 27.547 30.3366 26.6504 30.3343V30.3343C24.486 30.3336 22.3699 30.9745 20.5696 32.1761L16.3281 35.0029" stroke="#171717" stroke-width="2" stroke-linecap="round" stroke-linejoin="round"/>
</svg>
