<svg width="56" height="56" viewBox="0 0 56 56" fill="none" xmlns="http://www.w3.org/2000/svg">
<path d="M46.6667 28V49" stroke="#171717" stroke-width="2" stroke-linecap="round" stroke-linejoin="round"/>
<path d="M51.3327 49H4.66602" stroke="#171717" stroke-width="2" stroke-linecap="round" stroke-linejoin="round"/>
<rect x="31.5" y="35" width="8.16667" height="7" rx="0.25" stroke="#171717" stroke-width="2" stroke-linecap="round" stroke-linejoin="round"/>
<path d="M16.334 49V35.5833C16.334 35.2612 16.5952 35 16.9173 35H23.9173C24.2395 35 24.5007 35.2612 24.5007 35.5833V49" stroke="#171717" stroke-width="2" stroke-linecap="round" stroke-linejoin="round"/>
<path d="M9.33268 28V49" stroke="#171717" stroke-width="2" stroke-linecap="round" stroke-linejoin="round"/>
<path d="M49 24.5L48.9999 15.9377C49.001 14.6962 48.5064 13.5058 47.6258 12.6307C46.598 11.6095 45.1764 10.1976 44.0186 9.04181C42.7072 7.7332 40.93 6.9988 39.0774 7H16.9183C15.0681 6.99885 13.2932 7.73236 11.9835 9.03933C10.8254 10.1952 9.40268 11.6083 8.37408 12.6303C7.4932 13.5056 6.99852 14.6966 7 15.9384L7.00164 24.5" stroke="#171717" stroke-width="2" stroke-linecap="round" stroke-linejoin="round"/>
<path d="M49 18.6667H7" stroke="#171717" stroke-width="2" stroke-linecap="round" stroke-linejoin="round"/>
<path d="M17.5 24.5V24.5C17.5 26.433 15.933 28 14 28H10.5C8.567 28 7 26.433 7 24.5V24.5" stroke="#171717" stroke-width="2" stroke-linecap="round" stroke-linejoin="round"/>
<path d="M28 24.5V24.5C28 26.433 26.433 28 24.5 28H21C19.067 28 17.5 26.433 17.5 24.5V24.5" stroke="#171717" stroke-width="2" stroke-linecap="round" stroke-linejoin="round"/>
<path d="M38.5 24.5V24.5C38.5 26.433 36.933 28 35 28H31.5C29.567 28 28 26.433 28 24.5V24.5" stroke="#171717" stroke-width="2" stroke-linecap="round" stroke-linejoin="round"/>
<path d="M49 24.5V24.5C49 26.433 47.433 28 45.5 28H42C40.067 28 38.5 26.433 38.5 24.5V24.5" stroke="#171717" stroke-width="2" stroke-linecap="round" stroke-linejoin="round"/>
</svg>
